<svg id="Capa_1" enable-background="new 0 0 512 512" height="512" viewBox="0 0 512 512" width="512" xmlns="http://www.w3.org/2000/svg"><g><g id="Adwords_2_"><g><path d="m333.075 10.239 160.503 482c1.538 4.585.762 9.609-2.051 13.521-2.813 3.926-7.354 6.24-12.173 6.24h-83.101c-32.505 0-61.143-20.669-71.25-51.416l-83.378-249.844c-1.04-3.076-1.04-6.416 0-9.492l63.003-190.994z" fill="#00a66c"/></g></g><g><path d="m115.751 512h-83.101c-4.819 0-9.346-2.314-12.173-6.226-2.813-3.911-3.589-8.936-2.065-13.521l159.902-482c2.051-6.122 7.778-10.253 14.238-10.253h126.299c4.819 0 9.346 2.314 12.173 6.226 2.813 3.911 3.589 8.95 2.051 13.521l-146.089 440.881c-10.107 30.718-38.745 51.372-71.235 51.372z" fill="#4086f4"/></g><g><path d="m318.851 0h-62.939v253.556.004l77.162-233.813c1.538-4.57.762-9.609-2.051-13.521-2.826-3.912-7.352-6.226-12.172-6.226z" fill="#4175df"/></g></g></svg>